<mxfile host="app.diagrams.net" modified="2024-01-22T06:55:07.637Z" agent="Mozilla/5.0 (Windows NT 10.0; Win64; x64) AppleWebKit/537.36 (KHTML, like Gecko) Chrome/120.0.0.0 Safari/537.36" etag="SNaOOWu8JwAN3mfMDsL8" version="22.1.21" type="github">
  <diagram name="페이지-1" id="-id1Ds1aUaFYytlTbWo1">
    <mxGraphModel dx="778" dy="393" grid="1" gridSize="10" guides="1" tooltips="1" connect="1" arrows="1" fold="1" page="1" pageScale="1" pageWidth="827" pageHeight="1169" math="0" shadow="0">
      <root>
        <mxCell id="0" />
        <mxCell id="1" parent="0" />
        <mxCell id="xp57XsLTkGDyC8K0tqDB-1" value="&lt;font style=&quot;font-size: 10px;&quot;&gt;사용자&lt;/font&gt;" style="shape=umlActor;verticalLabelPosition=bottom;verticalAlign=top;html=1;outlineConnect=0;fillColor=default;" vertex="1" parent="1">
          <mxGeometry x="90" y="180" width="30" height="60" as="geometry" />
        </mxCell>
        <mxCell id="xp57XsLTkGDyC8K0tqDB-4" value="&lt;p style=&quot;line-height: 120%;&quot;&gt;Calender Manage App&lt;/p&gt;&lt;p style=&quot;line-height: 120%;&quot;&gt;&lt;br&gt;&lt;/p&gt;&lt;p style=&quot;line-height: 120%;&quot;&gt;&lt;br&gt;&lt;/p&gt;&lt;p style=&quot;line-height: 120%;&quot;&gt;&lt;br&gt;&lt;/p&gt;&lt;p style=&quot;line-height: 120%;&quot;&gt;&lt;br&gt;&lt;/p&gt;&lt;p style=&quot;line-height: 120%;&quot;&gt;&lt;br&gt;&lt;/p&gt;&lt;p style=&quot;line-height: 120%;&quot;&gt;&lt;br&gt;&lt;/p&gt;&lt;p style=&quot;line-height: 120%;&quot;&gt;&lt;br&gt;&lt;/p&gt;&lt;p style=&quot;line-height: 120%;&quot;&gt;&lt;br&gt;&lt;/p&gt;&lt;p style=&quot;line-height: 120%;&quot;&gt;&lt;br&gt;&lt;/p&gt;&lt;p style=&quot;line-height: 120%;&quot;&gt;&lt;br&gt;&lt;/p&gt;&lt;p style=&quot;line-height: 120%;&quot;&gt;&lt;br&gt;&lt;/p&gt;" style="rounded=0;whiteSpace=wrap;html=1;fillColor=none;align=left;" vertex="1" parent="1">
          <mxGeometry x="200" y="40" width="320" height="320" as="geometry" />
        </mxCell>
        <mxCell id="xp57XsLTkGDyC8K0tqDB-5" value="&lt;font style=&quot;font-size: 10px;&quot;&gt;선택 일정 조회&lt;/font&gt;" style="ellipse;whiteSpace=wrap;html=1;fillColor=none;" vertex="1" parent="1">
          <mxGeometry x="219" y="85" width="90" height="40" as="geometry" />
        </mxCell>
        <mxCell id="xp57XsLTkGDyC8K0tqDB-6" value="&lt;font style=&quot;font-size: 10px;&quot;&gt;전체 일정 조회&lt;/font&gt;" style="ellipse;whiteSpace=wrap;html=1;fillColor=none;" vertex="1" parent="1">
          <mxGeometry x="219" y="155" width="90" height="40" as="geometry" />
        </mxCell>
        <mxCell id="xp57XsLTkGDyC8K0tqDB-7" value="&lt;font style=&quot;font-size: 10px;&quot;&gt;선택 일정 수정&lt;/font&gt;" style="ellipse;whiteSpace=wrap;html=1;fillColor=none;" vertex="1" parent="1">
          <mxGeometry x="219" y="225" width="90" height="40" as="geometry" />
        </mxCell>
        <mxCell id="xp57XsLTkGDyC8K0tqDB-8" value="&lt;font style=&quot;font-size: 10px;&quot;&gt;선택일정 삭제&lt;/font&gt;" style="ellipse;whiteSpace=wrap;html=1;fillColor=none;" vertex="1" parent="1">
          <mxGeometry x="219" y="295" width="90" height="40" as="geometry" />
        </mxCell>
        <mxCell id="xp57XsLTkGDyC8K0tqDB-9" value="&lt;font style=&quot;font-size: 10px;&quot;&gt;인증&lt;/font&gt;" style="ellipse;whiteSpace=wrap;html=1;fillColor=none;" vertex="1" parent="1">
          <mxGeometry x="410" y="125" width="90" height="40" as="geometry" />
        </mxCell>
        <mxCell id="xp57XsLTkGDyC8K0tqDB-10" value="&lt;font style=&quot;font-size: 10px;&quot;&gt;실패&lt;/font&gt;" style="ellipse;whiteSpace=wrap;html=1;fillColor=none;" vertex="1" parent="1">
          <mxGeometry x="410" y="265" width="90" height="40" as="geometry" />
        </mxCell>
        <mxCell id="xp57XsLTkGDyC8K0tqDB-11" value="" style="endArrow=classic;html=1;rounded=0;entryX=0;entryY=0.5;entryDx=0;entryDy=0;" edge="1" parent="1" source="xp57XsLTkGDyC8K0tqDB-1" target="xp57XsLTkGDyC8K0tqDB-5">
          <mxGeometry width="50" height="50" relative="1" as="geometry">
            <mxPoint x="190" y="150" as="sourcePoint" />
            <mxPoint x="240" y="100" as="targetPoint" />
          </mxGeometry>
        </mxCell>
        <mxCell id="xp57XsLTkGDyC8K0tqDB-12" value="" style="endArrow=classic;html=1;rounded=0;entryX=0;entryY=0.5;entryDx=0;entryDy=0;exitX=1;exitY=0.3333333333333333;exitDx=0;exitDy=0;exitPerimeter=0;" edge="1" parent="1" source="xp57XsLTkGDyC8K0tqDB-1" target="xp57XsLTkGDyC8K0tqDB-6">
          <mxGeometry width="50" height="50" relative="1" as="geometry">
            <mxPoint x="150" y="170" as="sourcePoint" />
            <mxPoint x="250" y="110" as="targetPoint" />
          </mxGeometry>
        </mxCell>
        <mxCell id="xp57XsLTkGDyC8K0tqDB-13" value="" style="endArrow=classic;html=1;rounded=0;entryX=0;entryY=0.5;entryDx=0;entryDy=0;exitX=1;exitY=0.3333333333333333;exitDx=0;exitDy=0;exitPerimeter=0;" edge="1" parent="1" source="xp57XsLTkGDyC8K0tqDB-1" target="xp57XsLTkGDyC8K0tqDB-7">
          <mxGeometry width="50" height="50" relative="1" as="geometry">
            <mxPoint x="170" y="189" as="sourcePoint" />
            <mxPoint x="260" y="120" as="targetPoint" />
          </mxGeometry>
        </mxCell>
        <mxCell id="xp57XsLTkGDyC8K0tqDB-14" value="" style="endArrow=classic;html=1;rounded=0;entryX=0;entryY=0.5;entryDx=0;entryDy=0;" edge="1" parent="1" target="xp57XsLTkGDyC8K0tqDB-8">
          <mxGeometry width="50" height="50" relative="1" as="geometry">
            <mxPoint x="120" y="200" as="sourcePoint" />
            <mxPoint x="270" y="130" as="targetPoint" />
          </mxGeometry>
        </mxCell>
        <mxCell id="xp57XsLTkGDyC8K0tqDB-20" value="" style="endArrow=classic;html=1;rounded=0;dashed=1;entryX=0;entryY=1;entryDx=0;entryDy=0;exitX=1;exitY=0.5;exitDx=0;exitDy=0;" edge="1" parent="1" source="xp57XsLTkGDyC8K0tqDB-7" target="xp57XsLTkGDyC8K0tqDB-9">
          <mxGeometry relative="1" as="geometry">
            <mxPoint x="240" y="210" as="sourcePoint" />
            <mxPoint x="340" y="210" as="targetPoint" />
          </mxGeometry>
        </mxCell>
        <mxCell id="xp57XsLTkGDyC8K0tqDB-21" value="&amp;lt;&amp;lt;include&amp;gt;&amp;gt;" style="edgeLabel;resizable=0;html=1;align=center;verticalAlign=middle;" connectable="0" vertex="1" parent="xp57XsLTkGDyC8K0tqDB-20">
          <mxGeometry relative="1" as="geometry" />
        </mxCell>
        <mxCell id="xp57XsLTkGDyC8K0tqDB-22" value="" style="endArrow=classic;html=1;rounded=0;dashed=1;entryX=0;entryY=1;entryDx=0;entryDy=0;exitX=1;exitY=0.5;exitDx=0;exitDy=0;" edge="1" parent="1" source="xp57XsLTkGDyC8K0tqDB-8" target="xp57XsLTkGDyC8K0tqDB-9">
          <mxGeometry relative="1" as="geometry">
            <mxPoint x="340" y="255" as="sourcePoint" />
            <mxPoint x="392" y="169" as="targetPoint" />
          </mxGeometry>
        </mxCell>
        <mxCell id="xp57XsLTkGDyC8K0tqDB-23" value="&amp;lt;&amp;lt;include&amp;gt;&amp;gt;" style="edgeLabel;resizable=0;html=1;align=center;verticalAlign=middle;" connectable="0" vertex="1" parent="xp57XsLTkGDyC8K0tqDB-22">
          <mxGeometry relative="1" as="geometry" />
        </mxCell>
        <mxCell id="xp57XsLTkGDyC8K0tqDB-24" value="" style="endArrow=classic;html=1;rounded=0;dashed=1;entryX=1;entryY=0.5;entryDx=0;entryDy=0;exitX=0;exitY=0.5;exitDx=0;exitDy=0;" edge="1" parent="1" source="xp57XsLTkGDyC8K0tqDB-10" target="xp57XsLTkGDyC8K0tqDB-8">
          <mxGeometry relative="1" as="geometry">
            <mxPoint x="350" y="265" as="sourcePoint" />
            <mxPoint x="402" y="179" as="targetPoint" />
          </mxGeometry>
        </mxCell>
        <mxCell id="xp57XsLTkGDyC8K0tqDB-25" value="&amp;lt;&amp;lt;extend&amp;gt;&amp;gt;" style="edgeLabel;resizable=0;html=1;align=center;verticalAlign=middle;" connectable="0" vertex="1" parent="xp57XsLTkGDyC8K0tqDB-24">
          <mxGeometry relative="1" as="geometry" />
        </mxCell>
        <mxCell id="xp57XsLTkGDyC8K0tqDB-26" value="" style="endArrow=classic;html=1;rounded=0;dashed=1;entryX=1;entryY=0.5;entryDx=0;entryDy=0;exitX=0;exitY=0.5;exitDx=0;exitDy=0;" edge="1" parent="1" source="xp57XsLTkGDyC8K0tqDB-10" target="xp57XsLTkGDyC8K0tqDB-7">
          <mxGeometry relative="1" as="geometry">
            <mxPoint x="379" y="285" as="sourcePoint" />
            <mxPoint x="340" y="325" as="targetPoint" />
          </mxGeometry>
        </mxCell>
        <mxCell id="xp57XsLTkGDyC8K0tqDB-27" value="&amp;lt;&amp;lt;extend&amp;gt;&amp;gt;" style="edgeLabel;resizable=0;html=1;align=center;verticalAlign=middle;" connectable="0" vertex="1" parent="xp57XsLTkGDyC8K0tqDB-26">
          <mxGeometry relative="1" as="geometry" />
        </mxCell>
      </root>
    </mxGraphModel>
  </diagram>
</mxfile>
